<?xml version="1.0" encoding="utf-8"?>
<!-- Generator: Adobe Illustrator 21.1.0, SVG Export Plug-In . SVG Version: 6.00 Build 0)  -->
<svg version="1.1" id="Layer_1" xmlns="http://www.w3.org/2000/svg" xmlns:xlink="http://www.w3.org/1999/xlink" x="0px" y="0px"
	 viewBox="0 0 955 169" style="enable-background:new 0 0 955 169;" xml:space="preserve">
<style type="text/css">
	.st0{fill:#141936;}
	.st1{fill:#EFF6FC;}
</style>
<path class="st0" d="M34.8,141.2v-107c0-7.4,6-13.6,13.4-13.6s13.4,6.2,13.4,13.6v97.5H96c6.4,0,11.8,5.4,11.8,11.8
	c0,6.6-5.4,11.8-11.8,11.8H49.2C39.8,155.3,34.8,150.4,34.8,141.2z"/>
<path class="st0" d="M115.5,107c0-27,15.2-50.6,43.6-50.6c28.8,0,43.8,23.6,43.8,50.6c0,27.2-15,50.8-43.8,50.8
	C130.7,157.7,115.5,134.2,115.5,107z M178.1,107c0-15.8-5.8-29.4-19-29.4c-12.8,0-18.6,13.6-18.6,29.4c0,16,5.8,29.6,18.6,29.6
	C172.3,136.6,178.1,123,178.1,107z"/>
<path class="st0" d="M297.6,69.6v75c0,6.8-5.2,12.2-12,12.2s-12.2-5.4-12.2-12.2v-1.2c-5.2,7.4-15.6,14.4-28.2,14.4
	c-17.8,0-25.8-9.8-25.8-26V69.6c0-6.6,5.4-12.2,12-12.2s12,5.6,12,12.2v53c0,10.2,4.8,14,12.8,14c7.8,0,14-5.8,17.4-11.8V69.6
	c0-6.6,5.4-12.2,12-12.2C292.2,57.4,297.6,63,297.6,69.6z"/>
<path class="st0" d="M316.8,27.8c0-8,6.6-14.6,14.4-14.6c8,0,14.4,6.6,14.4,14.6s-6.4,14.4-14.4,14.4
	C323.4,42.2,316.8,35.8,316.8,27.8z M319.2,144.6v-75c0-6.6,5.4-12.2,12-12.2s12,5.6,12,12.2v75c0,6.6-5.4,12.2-12,12.2
	C324.6,156.7,319.2,151.2,319.2,144.6z"/>
<path class="st0" d="M359.2,141c0-5.6,4.4-9.8,9.8-9.8c2,0,3.8,0.6,5.2,1.4c6.2,3.8,13.4,6.4,20,6.4c9.2,0,14.2-3.8,14.2-10
	c0-6.6-7.4-9.4-16.6-12.4c-13.6-4.4-31.2-9.6-31.2-31.2c0-15.6,12.6-29,35.2-29c10.4,0,19.4,2.8,27.2,7.8c2.8,1.6,4.6,4.4,4.6,7.8
	c0,5.2-4.2,9.4-9.4,9.4c-1.6,0-3.4-0.6-4.6-1.4c-5-3-11-5-17.4-5c-7.6,0-12.8,3.6-12.8,9c0,5.8,6.6,8.6,15.6,11.4
	c14,4.4,32.4,10.2,32.4,32.4c0,17.4-14.2,30-36.8,30c-11.8,0-22.2-3-30.8-8.6C361,147.6,359.2,144.4,359.2,141z"/>
<path class="st1" d="M581.6,145.8c0,6-5,11-11,11c-2.8,0-5-0.8-7.2-2.8c-3-2.8-6.6-6.2-10.2-9.8c-8.8,8.4-19.6,13.6-32.8,13.6
	c-20.8,0-37.2-13.2-37.2-37.8c0-20,11.8-30.8,24.8-39c-5-10.2-8.2-20-8.2-28.4c0-18.8,13.6-32.6,32.4-32.6
	c16.4,0,30.4,11.4,30.4,28.2c0,19.6-14,28.6-27.6,37c3,5.2,6.2,10,9,14c3,4.4,6,8.6,9.2,12.6c2.2-5,4.4-10.2,6-15
	c1.4-4,5.2-6.6,9.6-6.6c5.6,0,10.2,4.6,10.2,10c0,1.4-0.4,3-1,4.2c-3.2,8-7,15.8-11.2,22.8c3.4,3.6,7,6.8,10.8,10.2
	C580.4,139.6,581.6,142.8,581.6,145.8z M540.9,130.6c-5.6-6.2-10.4-12.2-13.4-16.6c-3.4-5.2-7-10.6-10.4-16.2
	c-5.4,5.2-9,11.4-9,20.2c0,12.6,7.6,20.8,16.4,20.8C530.5,138.8,536.1,135.6,540.9,130.6z M526.9,69.8c8.6-5.4,15-11.4,15-20.4
	c0-7.8-4-12-9-12c-6.4,0-10.4,5.6-10.4,15.4C522.5,57.8,524.3,63.8,526.9,69.8z"/>
<path class="st0" d="M641.4,141.2v-107c0-7.4,6-13.6,13.4-13.6s13.4,6.2,13.4,13.6v97.5h34.4c6.4,0,11.8,5.4,11.8,11.8
	c0,6.6-5.4,11.8-11.8,11.8h-46.8C646.4,155.3,641.4,150.4,641.4,141.2z"/>
<path class="st0" d="M726.7,27.8c0-8,6.6-14.6,14.4-14.6c8,0,14.4,6.6,14.4,14.6s-6.4,14.4-14.4,14.4
	C733.3,42.2,726.7,35.8,726.7,27.8z M729.1,144.6v-75c0-6.6,5.4-12.2,12-12.2s12,5.6,12,12.2v75c0,6.6-5.4,12.2-12,12.2
	C734.5,156.7,729.1,151.2,729.1,144.6z"/>
<path class="st0" d="M769.1,141c0-5.6,4.4-9.8,9.8-9.8c2,0,3.8,0.6,5.2,1.4c6.2,3.8,13.4,6.4,20,6.4c9.2,0,14.2-3.8,14.2-10
	c0-6.6-7.4-9.4-16.6-12.4c-13.6-4.4-31.2-9.6-31.2-31.2c0-15.6,12.6-29,35.2-29c10.4,0,19.4,2.8,27.2,7.8c2.8,1.6,4.6,4.4,4.6,7.8
	c0,5.2-4.2,9.4-9.4,9.4c-1.6,0-3.4-0.6-4.6-1.4c-5-3-11-5-17.4-5c-7.6,0-12.8,3.6-12.8,9c0,5.8,6.6,8.6,15.6,11.4
	c14,4.4,32.4,10.2,32.4,32.4c0,17.4-14.2,30-36.8,30c-11.8,0-22.2-3-30.8-8.6C770.9,147.6,769.1,144.4,769.1,141z"/>
<path class="st0" d="M931.2,90.6v53.8c0,6.8-5.4,12.4-12.2,12.4c-6.2,0-11.4-4.8-12.2-11c-5.2,7.6-15.2,12-25.2,12
	c-15.2,0-29.8-11.4-29.8-32c0-21.2,14.6-31.2,29.8-31.2c10,0,20.2,3.8,25.4,11.4V93.2c0-10.4-6.4-16.8-17.8-16.8
	c-5.8,0-11.4,1.6-17.2,5.4c-1.4,0.8-3,1.2-4.8,1.2c-5.2,0-9.4-4.2-9.4-9.2c0-3.4,1.8-6.4,4.4-8c10-6.6,21.2-9.4,31.4-9.4
	C914.8,56.4,931.2,65.8,931.2,90.6z M907,132.4V120c-3.2-5.8-9.6-9.4-16.2-9.4c-9,0-15,6.4-15,15.6s6,15.4,15,15.4
	C897.4,141.6,903.8,138.4,907,132.4z"/>
</svg>
